<svg viewBox="0 0 72 72" xmlns="http://www.w3.org/2000/svg"><g style="fill:none;stroke:#000;stroke-linecap:round;stroke-linejoin:round;stroke-miterlimit:10;stroke-width:2"><path d="m57.855 39.5861c5.9803 5.018 6.7603 13.9339 1.7423 19.9141s-13.9339 6.7603-19.9141 1.7423"/><path d="m57.2801 39.1037-7.8962-6.6257"/><path d="m45.3302 36.9171c-1.2261-1.1197-1.3124-3.0213-.1927-4.2474s3.0213-1.3124 4.2474-.1927"/><path d="m41.3136 41.3926c-1.2261-1.1197-1.3124-3.0213-.1927-4.2474s3.0213-1.3124 4.2474-.1927"/><path d="m41.2277 41.316c-1.1823-1.1659-1.1956-3.0694-.0297-4.2516 1.1658-1.1823 3.0694-1.1956 4.2516-.0297"/><path d="m37.1131 45.7593c-1.201-1.1465-1.2452-3.0496-.0987-4.2506s3.0496-1.2453 4.2506-.0988"/><path d="m29.2154 58.143c-1.6564.116-3.0931-1.1328-3.2091-2.7891s1.1328-3.0931 2.7891-3.2091"/><path d="m18.5267 38.0128c-1.2719-1.0673-1.4379-2.9636-.3706-4.2356s2.9636-1.4379 4.2356-.3706"/><path d="m37.0887 45.7389-14.697-12.3323"/><path d="m18.5267 38.0128 18.2867 15.3443"/><path d="m31.3332 52.0787-2.5378.0661"/><path d="m31.7178 58.2606c2.4888-.1011 5.263.6335 8.0883 3.0851"/><path d="m29.2154 58.143 2.5719.1157"/><path d="m17.0896 30.8171c-.165-.5297-.4788-1.0198-.9353-1.4029-1.2692-1.065-3.1615-.8995-4.2265.3698-1.065 1.2692-.8995 3.1615.3698 4.2265.6346.5325 1.425.7574 2.1898.6905"/><path d="m13.4657 24.5518v-17.0858"/><path d="m8.2932 11.3372 5.2011-5.2017"/><path d="m18.6961 11.3367-5.2018-5.2012"/></g></svg>