<svg enable-background="new 0 0 40 40" height="40" viewBox="0 0 40 40" width="40" xmlns="http://www.w3.org/2000/svg"><g fill="#1a171b"><path d="m21.475 5.33c-.042-.021-4.203-1.997-7.514-2.249-3.48-.271-6.967 1.576-7.003 1.596l-.471-.883c.152-.081 3.78-1.992 7.55-1.711 3.499.268 7.692 2.261 7.869 2.345z"/><path d="m17.957 7.297-.438-.899 3.43-1.672-2.216-3.045.809-.588 2.917 4.008z"/><path d="m3.023 9.914-.431-.902c.177-.084 4.37-2.077 7.87-2.345 3.758-.274 7.397 1.63 7.549 1.711l-.471.883c-.035-.019-3.533-1.867-7.002-1.596-3.311.252-7.473 2.229-7.515 2.249z"/><path d="m6.542 11.881-4.503-2.196 2.917-4.008.809.588-2.216 3.045 3.43 1.672z"/><path d="m25.338 39.438c-1.273 0-2.564-.138-3.732-.398-1.993-.444-6.186-3.643-7.073-4.562-.802-.831-2.95-4.021-3.265-6.616-.138-1.13.729-4.497 1.79-5.695.209-.235.428-.393.652-.471-.045-.103-.091-.206-.137-.308-.69-1.502-1.712-3.237-2.614-4.769-1.527-2.594-2.096-3.63-2-4.22.161-1 .981-2.154 2.073-2.356l.193-.039c.252-.053.537-.112.859-.112.953 0 1.826.544 2.749 1.711.799 1.011 2.093 3.802 3.182 6.327-.05-.636-.031-1.167.103-1.477.54-1.253 2.046-1.746 2.505-1.775l.113-.003c.291 0 1.78.073 2.47 1.521.11.232.215.482.312.735.124-.43.3-.805.551-1.019.772-.656 1.829-.996 2.548-.794.773.217 1.424 1.035 1.659 2.088.101-.228.223-.413.367-.521.699-.524 1.915-.58 2.685-.046.94.652 3.102 4.558 3.482 7.974.311 2.808.662 7.826-.497 9.894-1.204 2.145-3.667 3.811-5.446 4.45-.866.309-2.119.481-3.529.481zm-11.27-16.78c-.664.066-1.965 3.786-1.808 5.081.282 2.328 2.281 5.306 2.993 6.044.847.878 4.857 3.898 6.569 4.279 1.099.245 2.313.375 3.515.375 1.279 0 2.441-.155 3.189-.425 1.345-.483 3.761-1.946 4.912-3.999.748-1.331.885-4.719.376-9.292-.361-3.258-2.468-6.854-3.057-7.264-.473-.327-1.261-.167-1.516.025-.141.161-.35 1.103-.431 2l-.251 2.767-.729-2.681s-.324-1.19-.528-2.133c-.174-.797-.618-1.263-.957-1.357-.373-.106-1.122.161-1.629.593-.276.235-.481 1.593-.49 2.663l-.038 4.157-.949-4.048c-.004-.018-.401-1.703-.936-2.82-.432-.906-1.382-.952-1.567-.952-.291.02-1.356.378-1.7 1.175-.24.559.304 3.476.945 5.857l-.948.312c-.033-.087-3.518-8.942-4.983-10.795-.942-1.192-1.572-1.33-1.964-1.33-.22 0-.432.044-.655.091l-.215.043c-.562.104-1.153.821-1.27 1.534.009.382 1.044 2.14 1.876 3.553.913 1.552 1.949 3.311 2.66 4.858.181.393.349.802.504 1.22l.002.007c1.085 1.495 1.625 6.412 1.684 6.977l-.993.115c-.004-.035-.462-3.537-1.572-6.593-.016-.017-.029-.029-.039-.037z"/></g></svg>